<?xml version='1.0' encoding='utf-8'?>
<mlt LC_NUMERIC="C" producer="main_bin" version="6.24.0" root="{DATALADPROJECTROOT}">
 <profile frame_rate_num="60" sample_aspect_num="1" display_aspect_den="9" colorspace="709" progressive="1" description="HD 1080p 60 fps" display_aspect_num="16" frame_rate_den="1" width="1920" height="1080" sample_aspect_den="1"/>
 <producer id="producer0" in="00:00:00.000" out="00:00:27.767">
  <property name="length">1667</property>
  <property name="eof">pause</property>
  <property name="resource">materials/gource_jureca.mp4</property>
  <property name="audio_index">-1</property>
  <property name="video_index">0</property>
  <property name="mute_on_pause">0</property>
  <property name="mlt_service">avformat-novalidate</property>
  <property name="meta.media.nb_streams">1</property>
  <property name="meta.media.0.stream.type">video</property>
  <property name="meta.media.0.stream.frame_rate">60</property>
  <property name="meta.media.0.stream.sample_aspect_ratio">0</property>
  <property name="meta.media.0.codec.width">1920</property>
  <property name="meta.media.0.codec.height">1080</property>
  <property name="meta.media.0.codec.rotate">0</property>
  <property name="meta.media.0.codec.frame_rate">60</property>
  <property name="meta.media.0.codec.pix_fmt">yuv420p</property>
  <property name="meta.media.0.codec.sample_aspect_ratio">0</property>
  <property name="meta.media.0.codec.colorspace">709</property>
  <property name="meta.media.0.codec.name">h264</property>
  <property name="meta.media.0.codec.long_name">H.264 / AVC / MPEG-4 AVC / MPEG-4 part 10</property>
  <property name="meta.media.0.codec.bit_rate">9832538</property>
  <property name="meta.attr.0.stream.handler_name.markup">VideoHandler</property>
  <property name="meta.attr.major_brand.markup">isom</property>
  <property name="meta.attr.minor_version.markup">512</property>
  <property name="meta.attr.compatible_brands.markup">isomiso2avc1mp41</property>
  <property name="meta.attr.encoder.markup">Lavf58.45.100</property>
  <property name="seekable">1</property>
  <property name="meta.media.sample_aspect_num">1</property>
  <property name="meta.media.sample_aspect_den">1</property>
  <property name="aspect_ratio">1</property>
  <property name="kdenlive:clipname"/>
  <property name="meta.media.frame_rate_num">60</property>
  <property name="meta.media.frame_rate_den">1</property>
  <property name="meta.media.colorspace">709</property>
  <property name="meta.media.color_trc">2</property>
  <property name="meta.media.width">1920</property>
  <property name="meta.media.height">1080</property>
  <property name="meta.media.color_range">mpeg</property>
  <property name="meta.media.top_field_first">0</property>
  <property name="meta.media.progressive">1</property>
  <property name="kdenlive:folderid">2</property>
  <property name="kdenlive:id">3</property>
  <property name="kdenlive:file_size">34155467</property>
  <property name="kdenlive:file_hash">d14f623fb59633363de6e385da4cc8b2</property>
  <property name="global_feed">1</property>
 </producer>
 <producer id="producer1" in="00:00:00.000" out="00:01:13.517">
  <property name="length">4412</property>
  <property name="eof">pause</property>
  <property name="resource">materials/gource_juseless.mp4</property>
  <property name="audio_index">-1</property>
  <property name="video_index">0</property>
  <property name="mute_on_pause">0</property>
  <property name="mlt_service">avformat-novalidate</property>
  <property name="seekable">1</property>
  <property name="aspect_ratio">1</property>
  <property name="kdenlive:clipname"/>
  <property name="kdenlive:folderid">2</property>
  <property name="kdenlive:id">4</property>
  <property name="kdenlive:file_size">209317694</property>
  <property name="kdenlive:file_hash">72e7c95edac671e64a7768d725d638b5</property>
  <property name="global_feed">1</property>
  <property name="meta.media.nb_streams">1</property>
  <property name="meta.media.0.stream.type">video</property>
  <property name="meta.media.0.stream.frame_rate">60</property>
  <property name="meta.media.0.stream.sample_aspect_ratio">0</property>
  <property name="meta.media.0.codec.width">1920</property>
  <property name="meta.media.0.codec.height">1080</property>
  <property name="meta.media.0.codec.rotate">0</property>
  <property name="meta.media.0.codec.frame_rate">60</property>
  <property name="meta.media.0.codec.pix_fmt">yuv420p</property>
  <property name="meta.media.0.codec.sample_aspect_ratio">0</property>
  <property name="meta.media.0.codec.colorspace">709</property>
  <property name="meta.media.0.codec.name">h264</property>
  <property name="meta.media.0.codec.long_name">H.264 / AVC / MPEG-4 AVC / MPEG-4 part 10</property>
  <property name="meta.media.0.codec.bit_rate">22770246</property>
  <property name="meta.attr.0.stream.handler_name.markup">VideoHandler</property>
  <property name="meta.attr.major_brand.markup">isom</property>
  <property name="meta.attr.minor_version.markup">512</property>
  <property name="meta.attr.compatible_brands.markup">isomiso2avc1mp41</property>
  <property name="meta.attr.encoder.markup">Lavf58.45.100</property>
  <property name="meta.media.sample_aspect_num">1</property>
  <property name="meta.media.sample_aspect_den">1</property>
  <property name="meta.media.frame_rate_num">60</property>
  <property name="meta.media.frame_rate_den">1</property>
  <property name="meta.media.colorspace">709</property>
  <property name="meta.media.color_trc">2</property>
  <property name="meta.media.width">1920</property>
  <property name="meta.media.height">1080</property>
  <property name="meta.media.color_range">mpeg</property>
  <property name="meta.media.top_field_first">0</property>
  <property name="meta.media.progressive">1</property>
 </producer>
 <producer id="producer2" in="00:00:00.000" out="00:01:19.983">
  <property name="length">4800</property>
  <property name="eof">pause</property>
  <property name="resource">materials/cheremisinov-burning.mp3</property>
  <property name="meta.media.nb_streams">1</property>
  <property name="meta.media.0.stream.type">audio</property>
  <property name="meta.media.0.codec.sample_fmt">fltp</property>
  <property name="meta.media.0.codec.sample_rate">44100</property>
  <property name="meta.media.0.codec.channels">2</property>
  <property name="meta.media.0.codec.name">mp3float</property>
  <property name="meta.media.0.codec.long_name">MP3 (MPEG audio layer 3)</property>
  <property name="meta.media.0.codec.bit_rate">320000</property>
  <property name="meta.attr.title.markup">Burning</property>
  <property name="meta.attr.artist.markup">Sergey Cheremisinov</property>
  <property name="meta.attr.track.markup">2</property>
  <property name="meta.attr.album.markup">Insomnia</property>
  <property name="meta.attr.date.markup">2019-04-01T02:43:20</property>
  <property name="meta.attr.copyright.markup">Creative Commons Attribution-NonCommercial-NoDerivatives 4.0: http://creativecommons.org/licenses/by-nc-nd/4.0/</property>
  <property name="meta.attr.TDAT.markup">2019-04-01 2:43:20</property>
  <property name="meta.attr.comment.markup">URL: http://freemusicarchive.org/music/Sergey_Cheremisinov/Insomnia_1268/Burning_1080&#xd;
Comments: http://freemusicarchive.org/&#xd;
Curator: &#xd;
Copyright: Creative Commons Attribution-NonCommercial-NoDerivatives 4.0: http://creativecommons.org/licenses/by-nc-nd/4.0/</property>
  <property name="meta.attr.album_artist.markup">Sergey Cheremisinov</property>
  <property name="seekable">1</property>
  <property name="audio_index">0</property>
  <property name="video_index">-1</property>
  <property name="mute_on_pause">1</property>
  <property name="mlt_service">avformat</property>
  <property name="kdenlive:clipname"/>
  <property name="kdenlive:folderid">2</property>
  <property name="kdenlive:id">5</property>
  <property name="kdenlive:file_size">3200894</property>
  <property name="kdenlive:file_hash">c076124f64a98ec0b8119509ca71b7e1</property>
  <property name="kdenlive:audio_max">1</property>
  <property name="global_feed">1</property>
 </producer>
 <producer id="producer3" in="00:00:00.000" out="00:01:00.900">
  <property name="length">3655</property>
  <property name="eof">pause</property>
  <property name="resource">src/whatisdatalad/materials/credits.mp4</property>
  <property name="audio_index">-1</property>
  <property name="video_index">0</property>
  <property name="mute_on_pause">0</property>
  <property name="mlt_service">avformat-novalidate</property>
  <property name="meta.media.nb_streams">1</property>
  <property name="meta.media.0.stream.type">video</property>
  <property name="meta.media.0.stream.frame_rate">25.0164</property>
  <property name="meta.media.0.stream.sample_aspect_ratio">1</property>
  <property name="meta.media.0.codec.width">1920</property>
  <property name="meta.media.0.codec.height">1080</property>
  <property name="meta.media.0.codec.rotate">0</property>
  <property name="meta.media.0.codec.frame_rate">25</property>
  <property name="meta.media.0.codec.pix_fmt">yuv420p</property>
  <property name="meta.media.0.codec.sample_aspect_ratio">1</property>
  <property name="meta.media.0.codec.colorspace">709</property>
  <property name="meta.media.0.codec.color_trc">1</property>
  <property name="meta.media.0.codec.name">h264</property>
  <property name="meta.media.0.codec.long_name">H.264 / AVC / MPEG-4 AVC / MPEG-4 part 10</property>
  <property name="meta.media.0.codec.bit_rate">99190</property>
  <property name="meta.attr.0.stream.handler_name.markup">VideoHandler</property>
  <property name="meta.attr.major_brand.markup">isom</property>
  <property name="meta.attr.minor_version.markup">512</property>
  <property name="meta.attr.compatible_brands.markup">isomiso2avc1mp41</property>
  <property name="meta.attr.encoder.markup">Lavf58.29.100</property>
  <property name="seekable">1</property>
  <property name="meta.media.sample_aspect_num">1</property>
  <property name="meta.media.sample_aspect_den">1</property>
  <property name="aspect_ratio">1</property>
  <property name="kdenlive:clipname"/>
  <property name="kdenlive:folderid">2</property>
  <property name="meta.media.frame_rate_num">38100</property>
  <property name="meta.media.frame_rate_den">1523</property>
  <property name="meta.media.colorspace">709</property>
  <property name="meta.media.color_trc">1</property>
  <property name="meta.media.width">1920</property>
  <property name="meta.media.height">1080</property>
  <property name="meta.media.color_range">mpeg</property>
  <property name="kdenlive:id">6</property>
  <property name="kdenlive:file_size">774260</property>
  <property name="kdenlive:file_hash">7e7fb7ca9f87c060201e47c18fdd0184</property>
  <property name="meta.media.top_field_first">0</property>
  <property name="meta.media.progressive">1</property>
  <property name="global_feed">1</property>
 </producer>
 <producer id="producer4" in="00:00:00.000" out="00:00:04.983">
  <property name="length">00:00:05.000</property>
  <property name="eof">pause</property>
  <property name="resource">materials/license.png</property>
  <property name="ttl">25</property>
  <property name="aspect_ratio">1</property>
  <property name="progressive">1</property>
  <property name="seekable">1</property>
  <property name="meta.media.width">1920</property>
  <property name="meta.media.height">1080</property>
  <property name="mlt_service">qimage</property>
  <property name="kdenlive:clipname"/>
  <property name="kdenlive:duration">00:00:05.000</property>
  <property name="kdenlive:folderid">2</property>
  <property name="kdenlive:id">7</property>
  <property name="kdenlive:file_size">48315</property>
  <property name="kdenlive:file_hash">ffa6a7c0e7fa841034b089d7e1f6e2bd</property>
 </producer>
 <producer id="producer7" in="00:00:00.000" out="00:00:04.983">
  <property name="length">300</property>
  <property name="eof">pause</property>
  <property name="resource"/>
  <property name="progressive">1</property>
  <property name="aspect_ratio">1</property>
  <property name="seekable">1</property>
  <property name="mlt_service">kdenlivetitle</property>
  <property name="kdenlive:duration">00:00:03.000</property>
  <property name="kdenlive:clipname">Reproducible...</property>
  <property name="xmldata">&lt;kdenlivetitle duration="180" LC_NUMERIC="C" width="1920" height="1080" out="179">
 &lt;item type="QGraphicsTextItem" z-index="0">
  &lt;position x="575" y="504">
   &lt;transform>1,0,0,0,1,0,0,0,1&lt;/transform>
  &lt;/position>
  &lt;content line-spacing="0" shadow="0;#64000000;3;3;3" font-underline="0" box-height="72" font-outline-color="51,51,51,255" font="Latin Modern Sans Demi Cond" letter-spacing="0" font-pixel-size="50" font-italic="0" alignment="2" font-weight="25" font-outline="1.3" box-width="769.047" font-color="200,200,200,255">Reproducible brain imaging is beautiful&lt;/content>
 &lt;/item>
 &lt;startviewport rect="0,0,1920,1080"/>
 &lt;endviewport rect="0,0,1920,1080"/>
 &lt;background color="0,0,0,0"/>
&lt;/kdenlivetitle>
</property>
  <property name="kdenlive:folderid">2</property>
  <property name="kdenlive:id">9</property>
  <property name="kdenlive:file_hash">8061c50b90bf7d890dd45f6aee093e19</property>
  <property name="force_reload">0</property>
  <property name="global_feed">1</property>
  <property name="meta.media.width">1920</property>
  <property name="meta.media.height">1080</property>
 </producer>
 <producer id="producer8" in="00:00:00.000" out="00:00:04.983">
  <property name="length">300</property>
  <property name="eof">pause</property>
  <property name="resource"/>
  <property name="progressive">1</property>
  <property name="aspect_ratio">1</property>
  <property name="seekable">1</property>
  <property name="mlt_service">kdenlivetitle</property>
  <property name="kdenlive:duration">00:00:03.000</property>
  <property name="kdenlive:clipname">Processing 4...</property>
  <property name="xmldata">&lt;kdenlivetitle duration="180" LC_NUMERIC="C" width="1920" height="1080" out="179">
 &lt;item type="QGraphicsTextItem" z-index="0">
  &lt;position x="520" y="504">
   &lt;transform>1,0,0,0,1,0,0,0,1&lt;/transform>
  &lt;/position>
  &lt;content line-spacing="0" shadow="0;#64000000;3;3;3" font-underline="0" box-height="72" font-outline-color="51,51,51,255" font="Latin Modern Sans Demi Cond" letter-spacing="0" font-pixel-size="50" font-italic="0" alignment="2" font-weight="25" font-outline="1.3" box-width="879.016" font-color="200,200,200,255">Processing 41,180 UK Biobank brain images&lt;/content>
 &lt;/item>
 &lt;startviewport rect="0,0,1920,1080"/>
 &lt;endviewport rect="0,0,1920,1080"/>
 &lt;background color="0,0,0,0"/>
&lt;/kdenlivetitle>
</property>
  <property name="kdenlive:folderid">2</property>
  <property name="kdenlive:id">10</property>
  <property name="kdenlive:file_hash">8061c50b90bf7d890dd45f6aee093e19</property>
  <property name="force_reload">0</property>
  <property name="global_feed">1</property>
  <property name="meta.media.width">1920</property>
  <property name="meta.media.height">1080</property>
 </producer>
 <producer id="producer9" in="00:00:00.000" out="00:00:04.983">
  <property name="length">300</property>
  <property name="eof">pause</property>
  <property name="resource"/>
  <property name="progressive">1</property>
  <property name="aspect_ratio">1</property>
  <property name="seekable">1</property>
  <property name="mlt_service">kdenlivetitle</property>
  <property name="kdenlive:duration">00:00:03.000</property>
  <property name="kdenlive:clipname">All results ...</property>
  <property name="xmldata">&lt;kdenlivetitle duration="180" LC_NUMERIC="C" width="1920" height="1080" out="179">
 &lt;item type="QGraphicsTextItem" z-index="0">
  &lt;position x="518" y="504">
   &lt;transform>1,0,0,0,1,0,0,0,1&lt;/transform>
  &lt;/position>
  &lt;content line-spacing="0" shadow="0;#64000000;3;3;3" font-underline="0" box-height="72" font-outline-color="51,51,51,255" font="Latin Modern Sans Demi Cond" letter-spacing="0" font-pixel-size="50" font-italic="0" alignment="2" font-weight="25" font-outline="1.3" box-width="883.563" font-color="200,200,200,255">All results captured reproducibly by DataLad&lt;/content>
 &lt;/item>
 &lt;startviewport rect="0,0,1920,1080"/>
 &lt;endviewport rect="0,0,1920,1080"/>
 &lt;background color="0,0,0,0"/>
&lt;/kdenlivetitle>
</property>
  <property name="kdenlive:folderid">2</property>
  <property name="kdenlive:id">11</property>
  <property name="kdenlive:file_hash">8061c50b90bf7d890dd45f6aee093e19</property>
  <property name="force_reload">0</property>
  <property name="global_feed">1</property>
  <property name="meta.media.width">1920</property>
  <property name="meta.media.height">1080</property>
 </producer>
 <producer id="producer10" in="00:00:00.000" out="00:00:04.983">
  <property name="length">300</property>
  <property name="eof">pause</property>
  <property name="resource"/>
  <property name="progressive">1</property>
  <property name="aspect_ratio">1</property>
  <property name="seekable">1</property>
  <property name="mlt_service">kdenlivetitle</property>
  <property name="kdenlive:duration">00:00:03.000</property>
  <property name="kdenlive:clipname">Here is the ...</property>
  <property name="xmldata">&lt;kdenlivetitle duration="180" LC_NUMERIC="C" width="1920" height="1080" out="179">
 &lt;item type="QGraphicsTextItem" z-index="0">
  &lt;position x="566" y="504">
   &lt;transform>1,0,0,0,1,0,0,0,1&lt;/transform>
  &lt;/position>
  &lt;content line-spacing="0" shadow="0;#64000000;3;3;3" font-underline="0" box-height="72" font-outline-color="51,51,51,255" font="Latin Modern Sans Demi Cond" letter-spacing="0" font-pixel-size="50" font-italic="0" alignment="2" font-weight="25" font-outline="1.3" box-width="788.922" font-color="200,200,200,255">Here is the visual history of this dataset&lt;/content>
 &lt;/item>
 &lt;startviewport rect="0,0,1920,1080"/>
 &lt;endviewport rect="0,0,1920,1080"/>
 &lt;background color="0,0,0,0"/>
&lt;/kdenlivetitle>
</property>
  <property name="kdenlive:folderid">2</property>
  <property name="kdenlive:id">12</property>
  <property name="kdenlive:file_hash">ca1d777bfd850d636bdd99b9a6c19ae2</property>
  <property name="force_reload">0</property>
  <property name="global_feed">1</property>
  <property name="meta.media.width">1920</property>
  <property name="meta.media.height">1080</property>
 </producer>
 <producer id="producer11" in="00:00:00.000" out="00:00:04.983">
  <property name="length">300</property>
  <property name="eof">pause</property>
  <property name="resource"/>
  <property name="progressive">1</property>
  <property name="aspect_ratio">1</property>
  <property name="seekable">1</property>
  <property name="mlt_service">kdenlivetitle</property>
  <property name="kdenlive:duration">300</property>
  <property name="kdenlive:clipname">Collaborativ...</property>
  <property name="xmldata">&lt;kdenlivetitle duration="300" LC_NUMERIC="C" width="1920" height="1080" out="299">
 &lt;item type="QGraphicsTextItem" z-index="0">
  &lt;position x="1360" y="400">
   &lt;transform>1,0,0,0,1,0,0,0,1&lt;/transform>
  &lt;/position>
  &lt;content line-spacing="0" shadow="0;#64000000;3;3;3" font-underline="0" box-height="280" font-outline-color="51,51,51,255" font="Latin Modern Sans Demi Cond" letter-spacing="0" font-pixel-size="50" font-italic="0" alignment="1" font-weight="25" font-outline="1.3" box-width="513.891" font-color="200,200,200,255">Collaboratively composing
the processing workflow

Running a few tests ...&lt;/content>
 &lt;/item>
 &lt;startviewport rect="0,0,1920,1080"/>
 &lt;endviewport rect="0,0,1920,1080"/>
 &lt;background color="0,0,0,0"/>
&lt;/kdenlivetitle>
</property>
  <property name="kdenlive:folderid">2</property>
  <property name="kdenlive:id">13</property>
  <property name="kdenlive:file_hash">7b71b52ff0860245d073ac3915b8611d</property>
  <property name="force_reload">0</property>
  <property name="meta.media.width">1920</property>
  <property name="meta.media.height">1080</property>
  <property name="global_feed">1</property>
 </producer>
 <producer id="producer12" in="00:00:00.000" out="00:00:04.983">
  <property name="length">300</property>
  <property name="eof">pause</property>
  <property name="resource"/>
  <property name="progressive">1</property>
  <property name="aspect_ratio">1</property>
  <property name="seekable">1</property>
  <property name="mlt_service">kdenlivetitle</property>
  <property name="kdenlive:duration">300</property>
  <property name="kdenlive:clipname">Submitting j...</property>
  <property name="xmldata">&lt;kdenlivetitle duration="300" LC_NUMERIC="C" width="1920" height="1080" out="299">
 &lt;item type="QGraphicsTextItem" z-index="0">
  &lt;position x="1440" y="470">
   &lt;transform>1,0,0,0,1,0,0,0,1&lt;/transform>
  &lt;/position>
  &lt;content line-spacing="0" shadow="0;#64000000;3;3;3" font-underline="0" box-height="140" font-outline-color="51,51,51,255" font="Latin Modern Sans Demi Cond" letter-spacing="0" font-pixel-size="50" font-italic="0" alignment="1" font-weight="25" font-outline="1.3" box-width="406.328" font-color="200,200,200,255">Submitting jobs to a
compute cluster ...&lt;/content>
 &lt;/item>
 &lt;startviewport rect="0,0,1920,1080"/>
 &lt;endviewport rect="0,0,1920,1080"/>
 &lt;background color="0,0,0,0"/>
&lt;/kdenlivetitle>
</property>
  <property name="kdenlive:folderid">2</property>
  <property name="kdenlive:id">14</property>
  <property name="kdenlive:file_hash">2dc0b2e3f18e779f4c640c05660dfc6d</property>
  <property name="force_reload">0</property>
  <property name="global_feed">1</property>
  <property name="meta.media.width">1920</property>
  <property name="meta.media.height">1080</property>
 </producer>
 <producer id="producer13" in="00:00:00.000" out="00:00:07.983">
  <property name="length">480</property>
  <property name="eof">pause</property>
  <property name="resource"/>
  <property name="progressive">1</property>
  <property name="aspect_ratio">1</property>
  <property name="seekable">1</property>
  <property name="mlt_service">kdenlivetitle</property>
  <property name="kdenlive:duration">300</property>
  <property name="kdenlive:clipname">Each job pro...</property>
  <property name="xmldata">&lt;kdenlivetitle duration="300" LC_NUMERIC="C" width="1920" height="1080" out="299">
 &lt;item type="QGraphicsTextItem" z-index="0">
  &lt;position x="1360" y="379">
   &lt;transform>1,0,0,0,1,0,0,0,1&lt;/transform>
  &lt;/position>
  &lt;content line-spacing="-7" shadow="0;#64000000;3;3;3" font-underline="0" box-height="322" font-outline-color="51,51,51,255" font="Latin Modern Sans Demi Cond" letter-spacing="0" font-pixel-size="50" font-italic="0" alignment="1" font-weight="25" font-outline="1.3" box-width="441.094" font-color="200,200,200,255">Each dot is a created
output file

Lines symbolize target
directories&lt;/content>
 &lt;/item>
 &lt;startviewport rect="0,0,1920,1080"/>
 &lt;endviewport rect="0,0,1920,1080"/>
 &lt;background color="0,0,0,0"/>
&lt;/kdenlivetitle>
</property>
  <property name="kdenlive:folderid">2</property>
  <property name="kdenlive:id">15</property>
  <property name="kdenlive:file_hash">9509f7f2a200fc561f2bfdfe10d6c5d8</property>
  <property name="force_reload">0</property>
  <property name="global_feed">1</property>
  <property name="meta.media.width">1920</property>
  <property name="meta.media.height">1080</property>
 </producer>
 <producer id="producer14" in="00:00:00.000" out="00:00:07.983">
  <property name="length">480</property>
  <property name="eof">pause</property>
  <property name="resource"/>
  <property name="progressive">1</property>
  <property name="aspect_ratio">1</property>
  <property name="seekable">1</property>
  <property name="mlt_service">kdenlivetitle</property>
  <property name="kdenlive:duration">300</property>
  <property name="kdenlive:clipname">The time sta...</property>
  <property name="xmldata">&lt;kdenlivetitle duration="300" LC_NUMERIC="C" width="1920" height="1080" out="299">
 &lt;item type="QGraphicsTextItem" z-index="0">
  &lt;position x="1360" y="379">
   &lt;transform>1,0,0,0,1,0,0,0,1&lt;/transform>
  &lt;/position>
  &lt;content line-spacing="-7" shadow="0;#64000000;3;3;3" font-underline="0" box-height="322" font-outline-color="51,51,51,255" font="Latin Modern Sans Demi Cond" letter-spacing="0" font-pixel-size="50" font-italic="0" alignment="1" font-weight="25" font-outline="1.3" box-width="429.016" font-color="200,200,200,255">The time stamp
indicates when the
computed outputs
were registered in the
dataset&lt;/content>
 &lt;/item>
 &lt;startviewport rect="0,0,1920,1080"/>
 &lt;endviewport rect="0,0,1920,1080"/>
 &lt;background color="0,0,0,0"/>
&lt;/kdenlivetitle>
</property>
  <property name="kdenlive:folderid">2</property>
  <property name="kdenlive:id">16</property>
  <property name="kdenlive:file_hash">f6a6e95fc9ddc0419e40364a9a2a8566</property>
  <property name="force_reload">0</property>
  <property name="global_feed">1</property>
  <property name="meta.media.width">1920</property>
  <property name="meta.media.height">1080</property>
 </producer>
 <producer id="producer15" in="00:00:00.000" out="00:00:07.983">
  <property name="length">480</property>
  <property name="eof">pause</property>
  <property name="resource"/>
  <property name="progressive">1</property>
  <property name="aspect_ratio">1</property>
  <property name="seekable">1</property>
  <property name="mlt_service">kdenlivetitle</property>
  <property name="kdenlive:duration">300</property>
  <property name="kdenlive:clipname">Each job - p...</property>
  <property name="xmldata">&lt;kdenlivetitle duration="300" LC_NUMERIC="C" width="1920" height="1080" out="299">
 &lt;item type="QGraphicsTextItem" z-index="0">
  &lt;position x="1353" y="316">
   &lt;transform>1,0,0,0,1,0,0,0,1&lt;/transform>
  &lt;/position>
  &lt;content line-spacing="-7" shadow="0;#64000000;3;3;3" font-underline="0" box-height="448" font-outline-color="51,51,51,255" font="Latin Modern Sans Demi Cond" letter-spacing="0" font-pixel-size="50" font-italic="0" alignment="1" font-weight="25" font-outline="1.3" box-width="509.688" font-color="200,200,200,255">Each job

- processed one image
- required one CPU hour
- needed 4 GB RAM
- used 5 GB of disk space
- created four output files&lt;/content>
 &lt;/item>
 &lt;startviewport rect="0,0,1920,1080"/>
 &lt;endviewport rect="0,0,1920,1080"/>
 &lt;background color="0,0,0,0"/>
&lt;/kdenlivetitle>
</property>
  <property name="kdenlive:folderid">2</property>
  <property name="kdenlive:id">17</property>
  <property name="kdenlive:file_hash">8e2eea11f57d1f75296c1bfc15571338</property>
  <property name="force_reload">0</property>
  <property name="global_feed">1</property>
  <property name="meta.media.width">1920</property>
  <property name="meta.media.height">1080</property>
 </producer>
 <producer id="producer16" in="00:00:00.000" out="00:00:07.983">
  <property name="length">480</property>
  <property name="eof">pause</property>
  <property name="resource"/>
  <property name="progressive">1</property>
  <property name="aspect_ratio">1</property>
  <property name="seekable">1</property>
  <property name="mlt_service">kdenlivetitle</property>
  <property name="kdenlive:duration">300</property>
  <property name="kdenlive:clipname">The number o...</property>
  <property name="xmldata">&lt;kdenlivetitle duration="300" LC_NUMERIC="C" width="1920" height="1080" out="299">
 &lt;item type="QGraphicsTextItem" z-index="0">
  &lt;position x="1360" y="316">
   &lt;transform>1,0,0,0,1,0,0,0,1&lt;/transform>
  &lt;/position>
  &lt;content line-spacing="-7" shadow="0;#64000000;3;3;3" font-underline="0" box-height="448" font-outline-color="51,51,51,255" font="Latin Modern Sans Demi Cond" letter-spacing="0" font-pixel-size="50" font-italic="0" alignment="1" font-weight="25" font-outline="1.3" box-width="438.313" font-color="200,200,200,255">The number of
simultaneous jobs
depended on the total
load of the cluster

Up to 600 jobs ran
at the same time&lt;/content>
 &lt;/item>
 &lt;startviewport rect="0,0,1920,1080"/>
 &lt;endviewport rect="0,0,1920,1080"/>
 &lt;background color="0,0,0,0"/>
&lt;/kdenlivetitle>
</property>
  <property name="kdenlive:folderid">2</property>
  <property name="kdenlive:id">18</property>
  <property name="kdenlive:file_hash">a59703f9498e30f97d25ed525b00e602</property>
  <property name="force_reload">0</property>
  <property name="global_feed">1</property>
  <property name="meta.media.width">1920</property>
  <property name="meta.media.height">1080</property>
 </producer>
 <producer id="producer17" in="00:00:00.000" out="00:00:07.983">
  <property name="length">480</property>
  <property name="eof">pause</property>
  <property name="resource"/>
  <property name="progressive">1</property>
  <property name="aspect_ratio">1</property>
  <property name="seekable">1</property>
  <property name="mlt_service">kdenlivetitle</property>
  <property name="kdenlive:duration">300</property>
  <property name="kdenlive:clipname">Total proces...</property>
  <property name="xmldata">&lt;kdenlivetitle duration="300" LC_NUMERIC="C" width="1920" height="1080" out="299">
 &lt;item type="QGraphicsTextItem" z-index="0">
  &lt;position x="1360" y="410">
   &lt;transform>1,0,0,0,1,0,0,0,1&lt;/transform>
  &lt;/position>
  &lt;content line-spacing="-7" shadow="0;#64000000;3;3;3" font-underline="0" box-height="259" font-outline-color="51,51,51,255" font="Latin Modern Sans Demi Cond" letter-spacing="0" font-pixel-size="50" font-italic="0" alignment="1" font-weight="25" font-outline="1.3" box-width="521.594" font-color="200,200,200,255">Total processing time was
almost six weeks, blending
with the other load of the
high-throughput cluster&lt;/content>
 &lt;/item>
 &lt;startviewport rect="0,0,1920,1080"/>
 &lt;endviewport rect="0,0,1920,1080"/>
 &lt;background color="0,0,0,0"/>
&lt;/kdenlivetitle>
</property>
  <property name="kdenlive:folderid">2</property>
  <property name="kdenlive:id">19</property>
  <property name="kdenlive:file_hash">5347ff73d3ebb02f84dfadce0e50fb1f</property>
  <property name="force_reload">0</property>
  <property name="global_feed">1</property>
  <property name="meta.media.width">1920</property>
  <property name="meta.media.height">1080</property>
 </producer>
 <producer id="producer18" in="00:00:00.000" out="00:00:07.983">
  <property name="length">480</property>
  <property name="eof">pause</property>
  <property name="resource"/>
  <property name="progressive">1</property>
  <property name="aspect_ratio">1</property>
  <property name="seekable">1</property>
  <property name="mlt_service">kdenlivetitle</property>
  <property name="kdenlive:duration">300</property>
  <property name="kdenlive:clipname">Each job - p... (copy)</property>
  <property name="xmldata">&lt;kdenlivetitle duration="300" LC_NUMERIC="C" width="1920" height="1080" out="299">
 &lt;item type="QGraphicsTextItem" z-index="0">
  &lt;position x="1353" y="316">
   &lt;transform>1,0,0,0,1,0,0,0,1&lt;/transform>
  &lt;/position>
  &lt;content line-spacing="-7" shadow="0;#64000000;3;3;3" font-underline="0" box-height="448" font-outline-color="51,51,51,255" font="Latin Modern Sans Demi Cond" letter-spacing="0" font-pixel-size="50" font-italic="0" alignment="1" font-weight="25" font-outline="1.3" box-width="509.688" font-color="200,200,200,255">Each job

- processed one image
- required one CPU hour
- needed 4 GB RAM
- used 5 GB of disk space
- created four output files&lt;/content>
 &lt;/item>
 &lt;startviewport rect="0,0,1920,1080"/>
 &lt;endviewport rect="0,0,1920,1080"/>
 &lt;background color="0,0,0,0"/>
&lt;/kdenlivetitle>
</property>
  <property name="kdenlive:folderid">2</property>
  <property name="kdenlive:id">20</property>
  <property name="kdenlive:file_hash">4c03ca23821074a6ed5fbf0d33b39895</property>
  <property name="force_reload">0</property>
  <property name="global_feed">1</property>
  <property name="meta.media.width">1920</property>
  <property name="meta.media.height">1080</property>
 </producer>
 <producer id="producer19" in="00:00:00.000" out="00:00:06.983">
  <property name="length">420</property>
  <property name="eof">pause</property>
  <property name="resource"/>
  <property name="progressive">1</property>
  <property name="aspect_ratio">1</property>
  <property name="seekable">1</property>
  <property name="mlt_service">kdenlivetitle</property>
  <property name="kdenlive:duration">00:00:03.000</property>
  <property name="kdenlive:clipname">If you had t...</property>
  <property name="xmldata">&lt;kdenlivetitle duration="180" LC_NUMERIC="C" width="1920" height="1080" out="179">
 &lt;item type="QGraphicsTextItem" z-index="0">
  &lt;position x="452" y="504">
   &lt;transform>1,0,0,0,1,0,0,0,1&lt;/transform>
  &lt;/position>
  &lt;content line-spacing="0" shadow="0;#64000000;3;3;3" font-underline="0" box-height="72" font-outline-color="51,51,51,255" font="Latin Modern Sans Demi Cond" letter-spacing="0" font-pixel-size="50" font-italic="0" alignment="2" font-weight="25" font-outline="1.3" box-width="1016.47" font-color="200,200,200,255">If you had the machines to run 3125 job at once ...&lt;/content>
 &lt;/item>
 &lt;startviewport rect="0,0,1920,1080"/>
 &lt;endviewport rect="0,0,1920,1080"/>
 &lt;background color="0,0,0,0"/>
&lt;/kdenlivetitle>
</property>
  <property name="kdenlive:folderid">2</property>
  <property name="kdenlive:id">21</property>
  <property name="kdenlive:file_hash">8061c50b90bf7d890dd45f6aee093e19</property>
  <property name="force_reload">0</property>
  <property name="global_feed">1</property>
  <property name="meta.media.width">1920</property>
  <property name="meta.media.height">1080</property>
 </producer>
 <producer id="producer20" in="00:00:00.000" out="00:00:07.983">
  <property name="length">480</property>
  <property name="eof">pause</property>
  <property name="resource"/>
  <property name="progressive">1</property>
  <property name="aspect_ratio">1</property>
  <property name="seekable">1</property>
  <property name="mlt_service">kdenlivetitle</property>
  <property name="kdenlive:duration">300</property>
  <property name="kdenlive:clipname">The number o... (copy)</property>
  <property name="xmldata">&lt;kdenlivetitle duration="300" LC_NUMERIC="C" width="1920" height="1080" out="299">
 &lt;item type="QGraphicsTextItem" z-index="0">
  &lt;position x="1360" y="316">
   &lt;transform>1,0,0,0,1,0,0,0,1&lt;/transform>
  &lt;/position>
  &lt;content line-spacing="-7" shadow="0;#64000000;3;3;3" font-underline="0" box-height="448" font-outline-color="51,51,51,255" font="Latin Modern Sans Demi Cond" letter-spacing="0" font-pixel-size="50" font-italic="0" alignment="1" font-weight="25" font-outline="1.3" box-width="438.313" font-color="200,200,200,255">The number of
simultaneous jobs
depended on the total
load of the cluster

Up to 600 jobs ran
at the same time&lt;/content>
 &lt;/item>
 &lt;startviewport rect="0,0,1920,1080"/>
 &lt;endviewport rect="0,0,1920,1080"/>
 &lt;background color="0,0,0,0"/>
&lt;/kdenlivetitle>
</property>
  <property name="kdenlive:folderid">2</property>
  <property name="kdenlive:id">22</property>
  <property name="kdenlive:file_hash">f9026a27f1ac1343697f4cb2a8e47a01</property>
  <property name="force_reload">0</property>
  <property name="global_feed">1</property>
  <property name="meta.media.width">1920</property>
  <property name="meta.media.height">1080</property>
 </producer>
 <producer id="producer21" in="00:00:00.000" out="00:00:06.983">
  <property name="length">420</property>
  <property name="eof">pause</property>
  <property name="resource"/>
  <property name="progressive">1</property>
  <property name="aspect_ratio">1</property>
  <property name="seekable">1</property>
  <property name="mlt_service">kdenlivetitle</property>
  <property name="kdenlive:duration">00:00:03.000</property>
  <property name="kdenlive:clipname">41,180 indiv...</property>
  <property name="xmldata">&lt;kdenlivetitle duration="180" LC_NUMERIC="C" width="1920" height="1080" out="179">
 &lt;item type="QGraphicsTextItem" z-index="1">
  &lt;position x="338" y="470">
   &lt;transform>1,0,0,0,1,0,0,0,1&lt;/transform>
  &lt;/position>
  &lt;content line-spacing="0" shadow="0;#64000000;3;3;3" font-underline="0" box-height="140" font-outline-color="51,51,51,255" font="Latin Modern Sans Demi Cond" letter-spacing="0" font-pixel-size="50" font-italic="0" alignment="4" font-weight="25" font-outline="1.3" box-width="1243.08" font-color="200,200,200,255">41,180 individual brain scans, 164,720 reproducible output files
in 10 hours&lt;/content>
 &lt;/item>
 &lt;startviewport rect="0,0,1920,1080"/>
 &lt;endviewport rect="0,0,1920,1080"/>
 &lt;background color="0,0,0,0"/>
&lt;/kdenlivetitle>
</property>
  <property name="kdenlive:folderid">2</property>
  <property name="kdenlive:id">23</property>
  <property name="kdenlive:file_hash">7de92b8c00d03e3191c27d33b52674b8</property>
  <property name="force_reload">0</property>
  <property name="global_feed">1</property>
  <property name="meta.media.width">1920</property>
  <property name="meta.media.height">1080</property>
 </producer>
 <producer id="producer22" in="00:00:00.000" out="00:00:06.983">
  <property name="length">420</property>
  <property name="eof">pause</property>
  <property name="resource"/>
  <property name="progressive">1</property>
  <property name="aspect_ratio">1</property>
  <property name="seekable">1</property>
  <property name="mlt_service">kdenlivetitle</property>
  <property name="kdenlive:duration">00:00:03.000</property>
  <property name="kdenlive:clipname">UK Biobank d...</property>
  <property name="xmldata">&lt;kdenlivetitle duration="180" LC_NUMERIC="C" width="1920" height="1080" out="179">
 &lt;item type="QGraphicsTextItem" z-index="0">
  &lt;position x="566" y="380">
   &lt;transform>1,0,0,0,1,0,0,0,1&lt;/transform>
  &lt;/position>
  &lt;content line-spacing="0" shadow="0;#64000000;3;3;3" font-underline="0" box-height="588" font-outline-color="51,51,51,255" font="Latin Modern Sans Demi Cond" letter-spacing="0" font-pixel-size="30" font-italic="0" alignment="4" font-weight="25" font-outline="1.3" box-width="787.984" font-color="16,16,16,255">UK Biobank data tracking and DataLad high-throughput workflow
conceived, implemented, and executed by

Małgorzata Wierzba
Adina S. Wagner
Laura K. Waite
Felix Hoffstaedter
Alexander Q. Waite
Michael Hanke

Big thanks to the DataLad development team!


&lt;/content>
 &lt;/item>
 &lt;startviewport rect="0,0,1920,1080"/>
 &lt;endviewport rect="0,0,1920,1080"/>
 &lt;background color="0,0,0,0"/>
&lt;/kdenlivetitle>
</property>
  <property name="kdenlive:folderid">2</property>
  <property name="kdenlive:id">24</property>
  <property name="kdenlive:file_hash">7de92b8c00d03e3191c27d33b52674b8</property>
  <property name="force_reload">0</property>
  <property name="global_feed">1</property>
  <property name="meta.media.width">1920</property>
  <property name="meta.media.height">1080</property>
 </producer>
 <producer id="producer6" in="00:00:00.000" out="00:00:08.317">
  <property name="length">500</property>
  <property name="eof">pause</property>
  <property name="resource"/>
  <property name="progressive">1</property>
  <property name="aspect_ratio">1</property>
  <property name="seekable">1</property>
  <property name="mlt_service">kdenlivetitle</property>
  <property name="kdenlive:duration">00:00:03.750</property>
  <property name="kdenlive:clipname">Contributors</property>
  <property name="xmldata">&lt;kdenlivetitle duration="225" LC_NUMERIC="C" width="1920" height="1080" out="224">
 &lt;item type="QGraphicsTextItem" z-index="1">
  &lt;position x="666" y="420">
   &lt;transform>1,0,0,0,1,0,0,0,1&lt;/transform>
  &lt;/position>
  &lt;content line-spacing="0" shadow="0;#ff000000;99;0;0" font-underline="0" box-height="2464" font-outline-color="51,51,51,255" font="Latin Modern Sans Demi Cond" letter-spacing="0" font-pixel-size="40" font-italic="0" alignment="4" font-weight="50" font-outline="1.3" box-width="588.641" font-color="51,51,51,255">DataLad Handbook Contributors 

Stefan Appelhoff 
Hamzah Hamid Baagil 
Judith Bomba 
Pattarawat Chormai 
Rémi Gau 
Tristan Glatard 
Yaroslav O. Halchenko 
Michael Hanke 
Marisa K. Heckner 
Peer Herholz 
Dorien Huijser 
Alexandre Hutton 
Giulia Ippoliti 
Michael Joseph 
Tobias Kadelka 
Nevena Kraljevic 
Christopher J. Markiewicz 
Kyle Meyer 
Lisa N. Mochalski 
Christian Mönch 
Sarah Oliveira 
Lya K. Paas 
Benjamin Poldrack 
Jean-Baptiste Poline 
Dorian Pustina 
Niels Reuter 
Ariel Rokem 
Surya T. Togaru 
Peter Vavra 
Adina S. Wagner 
Alexander Q. Waite 
Laura K. Waite 
Lisa Wiersch 
Małgorzata Wierzba





Thanks to all handbook contributors!

&lt;/content>
 &lt;/item>
 &lt;startviewport rect="0,-692.22,1920,1080"/>
 &lt;endviewport rect="0,2220,1920,1080"/>
 &lt;background color="0,0,0,0"/>
&lt;/kdenlivetitle>
</property>
  <property name="kdenlive:folderid">8</property>
  <property name="kdenlive:id">25</property>
  <property name="kdenlive:file_hash">006b0b707d6e274bacf93ef69d8f1056</property>
  <property name="force_reload">0</property>
  <property name="global_feed">1</property>
  <property name="meta.media.width">1920</property>
  <property name="meta.media.height">1080</property>
 </producer>
 <producer id="producer5" in="00:00:00.000" out="00:00:03.650">
  <property name="length">00:00:03.667</property>
  <property name="eof">pause</property>
  <property name="resource">0xffffffff</property>
  <property name="aspect_ratio">1</property>
  <property name="mlt_service">color</property>
  <property name="kdenlive:clipname">Color Clip</property>
  <property name="kdenlive:duration">00:00:05.000</property>
  <property name="kdenlive:folderid">8</property>
  <property name="kdenlive:id">26</property>
  <property name="mlt_image_format">rgb24</property>
  <property name="kdenlive:file_hash">039b56a692cd66eefeea44a17539e5a2</property>
  <property name="global_feed">1</property>
 </producer>
 <playlist id="main_bin">
  <property name="kdenlive:folder.-1.2">materials</property>
  <property name="kdenlive:folder.-1.8">Pasted clips</property>
  <property name="kdenlive:docproperties.activeTrack">3</property>
  <property name="kdenlive:docproperties.audioChannels">2</property>
  <property name="kdenlive:docproperties.audioTarget">-1</property>
  <property name="kdenlive:docproperties.disablepreview">0</property>
  <property name="kdenlive:docproperties.documentid">1622876060299</property>
  <property name="kdenlive:docproperties.enableTimelineZone">0</property>
  <property name="kdenlive:docproperties.enableexternalproxy">0</property>
  <property name="kdenlive:docproperties.enableproxy">0</property>
  <property name="kdenlive:docproperties.externalproxyparams"/>
  <property name="kdenlive:docproperties.generateimageproxy">0</property>
  <property name="kdenlive:docproperties.generateproxy">0</property>
  <property name="kdenlive:docproperties.groups">[
    {
        "children": [
            {
                "data": "1:6150",
                "leaf": "clip",
                "type": "Leaf"
            },
            {
                "data": "1:6499",
                "leaf": "clip",
                "type": "Leaf"
            },
            {
                "data": "2:6499",
                "leaf": "clip",
                "type": "Leaf"
            }
        ],
        "type": "Normal"
    }
]
</property>
  <property name="kdenlive:docproperties.kdenliveversion">20.12.2</property>
  <property name="kdenlive:docproperties.position">1056</property>
  <property name="kdenlive:docproperties.profile">atsc_1080p_60</property>
  <property name="kdenlive:docproperties.proxyextension">mpg</property>
  <property name="kdenlive:docproperties.proxyimageminsize">2000</property>
  <property name="kdenlive:docproperties.proxyimagesize">800</property>
  <property name="kdenlive:docproperties.proxyminsize">1000</property>
  <property name="kdenlive:docproperties.proxyparams">-s 640x480 -g 5 -qscale 6 -ab 128k -vcodec mpeg2video -acodec mp2</property>
  <property name="kdenlive:docproperties.renderaudioquality">192</property>
  <property name="kdenlive:docproperties.rendercategory">Generic (HD for web, mobile devices...)</property>
  <property name="kdenlive:docproperties.renderendguide">-1</property>
  <property name="kdenlive:docproperties.renderexportaudio">0</property>
  <property name="kdenlive:docproperties.renderfield">0</property>
  <property name="kdenlive:docproperties.renderguide">0</property>
  <property name="kdenlive:docproperties.renderplay">0</property>
  <property name="kdenlive:docproperties.renderprofile">MP4 - the dominating format (H264/AAC)</property>
  <property name="kdenlive:docproperties.renderquality">23</property>
  <property name="kdenlive:docproperties.renderratio">1</property>
  <property name="kdenlive:docproperties.renderrescale">0</property>
  <property name="kdenlive:docproperties.renderrescaleheight">360</property>
  <property name="kdenlive:docproperties.renderrescalewidth">640</property>
  <property name="kdenlive:docproperties.renderscanning">0</property>
  <property name="kdenlive:docproperties.renderspeed">2</property>
  <property name="kdenlive:docproperties.renderstartguide">-1</property>
  <property name="kdenlive:docproperties.rendertcoverlay">0</property>
  <property name="kdenlive:docproperties.rendertctype">0</property>
  <property name="kdenlive:docproperties.rendertwopass">0</property>
  <property name="kdenlive:docproperties.renderurl">rendered/project.mp4</property>
  <property name="kdenlive:docproperties.renderzone">0</property>
  <property name="kdenlive:docproperties.scrollPos">0</property>
  <property name="kdenlive:docproperties.seekOffset">30000</property>
  <property name="kdenlive:docproperties.version">1</property>
  <property name="kdenlive:docproperties.verticalzoom">1</property>
  <property name="kdenlive:docproperties.videoTarget">-1</property>
  <property name="kdenlive:docproperties.zonein">0</property>
  <property name="kdenlive:docproperties.zoneout">1</property>
  <property name="kdenlive:docproperties.zoom">11</property>
  <property name="kdenlive:expandedFolders">2;8</property>
  <property name="kdenlive:documentnotes"/>
  <property name="xml_retain">1</property>
  <entry producer="producer0" in="00:00:00.000" out="00:00:27.767"/>
  <entry producer="producer1" in="00:00:00.000" out="00:01:13.517"/>
  <entry producer="producer2" in="00:00:00.000" out="00:01:19.983"/>
  <entry producer="producer3" in="00:00:00.000" out="00:01:00.900"/>
  <entry producer="producer4" in="00:00:00.000" out="00:00:04.983"/>
  <entry producer="producer7" in="00:00:00.000" out="00:00:04.983"/>
  <entry producer="producer8" in="00:00:00.000" out="00:00:04.983"/>
  <entry producer="producer9" in="00:00:00.000" out="00:00:04.983"/>
  <entry producer="producer10" in="00:00:00.000" out="00:00:04.983"/>
  <entry producer="producer11" in="00:00:00.000" out="00:00:04.983"/>
  <entry producer="producer12" in="00:00:00.000" out="00:00:04.983"/>
  <entry producer="producer13" in="00:00:00.000" out="00:00:07.983"/>
  <entry producer="producer14" in="00:00:00.000" out="00:00:07.983"/>
  <entry producer="producer15" in="00:00:00.000" out="00:00:07.983"/>
  <entry producer="producer16" in="00:00:00.000" out="00:00:07.983"/>
  <entry producer="producer17" in="00:00:00.000" out="00:00:07.983"/>
  <entry producer="producer18" in="00:00:00.000" out="00:00:07.983"/>
  <entry producer="producer19" in="00:00:00.000" out="00:00:06.983"/>
  <entry producer="producer20" in="00:00:00.000" out="00:00:07.983"/>
  <entry producer="producer21" in="00:00:00.000" out="00:00:06.983"/>
  <entry producer="producer22" in="00:00:00.000" out="00:00:06.983"/>
  <entry producer="producer6" in="00:00:00.000" out="00:00:08.317"/>
  <entry producer="producer5" in="00:00:00.000" out="00:00:03.650"/>
 </playlist>
 <producer id="black_track" in="00:00:00.000" out="00:01:53.000">
  <property name="length">6780</property>
  <property name="eof">continue</property>
  <property name="resource">black</property>
  <property name="aspect_ratio">1</property>
  <property name="mlt_service">color</property>
  <property name="mlt_image_format">rgb24a</property>
  <property name="set.test_audio">0</property>
 </producer>
 <producer id="producer23" in="00:00:00.000" out="00:01:19.983">
  <property name="length">4800</property>
  <property name="eof">pause</property>
  <property name="resource">materials/cheremisinov-burning.mp3</property>
  <property name="audio_index">0</property>
  <property name="video_index">-1</property>
  <property name="mute_on_pause">0</property>
  <property name="mlt_service">avformat-novalidate</property>
  <property name="meta.media.nb_streams">1</property>
  <property name="meta.media.0.stream.type">audio</property>
  <property name="meta.media.0.codec.sample_fmt">fltp</property>
  <property name="meta.media.0.codec.sample_rate">44100</property>
  <property name="meta.media.0.codec.channels">2</property>
  <property name="meta.media.0.codec.name">mp3float</property>
  <property name="meta.media.0.codec.long_name">MP3 (MPEG audio layer 3)</property>
  <property name="meta.media.0.codec.bit_rate">320000</property>
  <property name="meta.attr.title.markup">Burning</property>
  <property name="meta.attr.artist.markup">Sergey Cheremisinov</property>
  <property name="meta.attr.track.markup">2</property>
  <property name="meta.attr.album.markup">Insomnia</property>
  <property name="meta.attr.date.markup">2019-04-01T02:43:20</property>
  <property name="meta.attr.copyright.markup">Creative Commons Attribution-NonCommercial-NoDerivatives 4.0: http://creativecommons.org/licenses/by-nc-nd/4.0/</property>
  <property name="meta.attr.TDAT.markup">2019-04-01 2:43:20</property>
  <property name="meta.attr.comment.markup">URL: http://freemusicarchive.org/music/Sergey_Cheremisinov/Insomnia_1268/Burning_1080&#xd;
Comments: http://freemusicarchive.org/&#xd;
Curator: &#xd;
Copyright: Creative Commons Attribution-NonCommercial-NoDerivatives 4.0: http://creativecommons.org/licenses/by-nc-nd/4.0/</property>
  <property name="meta.attr.album_artist.markup">Sergey Cheremisinov</property>
  <property name="seekable">1</property>
  <property name="kdenlive:clipname"/>
  <property name="kdenlive:folderid">2</property>
  <property name="kdenlive:id">5</property>
  <property name="kdenlive:file_size">3200894</property>
  <property name="kdenlive:file_hash">c076124f64a98ec0b8119509ca71b7e1</property>
  <property name="kdenlive:audio_max">1</property>
  <property name="global_feed">1</property>
  <property name="xml">was here</property>
  <property name="set.test_audio">0</property>
  <property name="set.test_image">1</property>
 </producer>
 <playlist id="playlist0">
  <property name="kdenlive:audio_track">1</property>
  <blank length="00:00:22.500"/>
  <entry producer="producer23" in="00:00:00.000" out="00:01:19.983">
   <property name="kdenlive:id">5</property>
  </entry>
 </playlist>
 <playlist id="playlist1"/>
 <tractor id="tractor0" in="00:00:00.000" out="00:01:42.483">
  <property name="kdenlive:audio_track">1</property>
  <property name="kdenlive:trackheight">73</property>
  <property name="kdenlive:timeline_active">1</property>
  <property name="kdenlive:collapsed">0</property>
  <property name="kdenlive:thumbs_format"/>
  <property name="kdenlive:audio_rec"/>
  <track hide="video" producer="playlist0"/>
  <track hide="video" producer="playlist1"/>
  <filter id="filter3">
   <property name="window">75</property>
   <property name="max_gain">20dB</property>
   <property name="mlt_service">volume</property>
   <property name="internal_added">237</property>
   <property name="disable">1</property>
  </filter>
  <filter id="filter4">
   <property name="channel">-1</property>
   <property name="mlt_service">panner</property>
   <property name="internal_added">237</property>
   <property name="start">0.5</property>
   <property name="disable">1</property>
  </filter>
  <filter id="filter0">
   <property name="iec_scale">0</property>
   <property name="mlt_service">audiolevel</property>
   <property name="disable">1</property>
  </filter>
 </tractor>
 <producer id="producer24" in="00:00:00.000" out="00:01:13.517">
  <property name="length">4412</property>
  <property name="eof">pause</property>
  <property name="resource">materials/gource_juseless.mp4</property>
  <property name="audio_index">-1</property>
  <property name="video_index">0</property>
  <property name="mute_on_pause">0</property>
  <property name="mlt_service">avformat-novalidate</property>
  <property name="seekable">1</property>
  <property name="aspect_ratio">1</property>
  <property name="kdenlive:clipname"/>
  <property name="kdenlive:folderid">2</property>
  <property name="kdenlive:id">4</property>
  <property name="kdenlive:file_size">209317694</property>
  <property name="kdenlive:file_hash">72e7c95edac671e64a7768d725d638b5</property>
  <property name="global_feed">1</property>
  <property name="xml">was here</property>
  <property name="meta.media.nb_streams">1</property>
  <property name="meta.media.0.stream.type">video</property>
  <property name="meta.media.0.stream.frame_rate">60</property>
  <property name="meta.media.0.stream.sample_aspect_ratio">0</property>
  <property name="meta.media.0.codec.width">1920</property>
  <property name="meta.media.0.codec.height">1080</property>
  <property name="meta.media.0.codec.rotate">0</property>
  <property name="meta.media.0.codec.frame_rate">60</property>
  <property name="meta.media.0.codec.pix_fmt">yuv420p</property>
  <property name="meta.media.0.codec.sample_aspect_ratio">0</property>
  <property name="meta.media.0.codec.colorspace">709</property>
  <property name="meta.media.0.codec.name">h264</property>
  <property name="meta.media.0.codec.long_name">H.264 / AVC / MPEG-4 AVC / MPEG-4 part 10</property>
  <property name="meta.media.0.codec.bit_rate">22770246</property>
  <property name="meta.attr.0.stream.handler_name.markup">VideoHandler</property>
  <property name="meta.attr.major_brand.markup">isom</property>
  <property name="meta.attr.minor_version.markup">512</property>
  <property name="meta.attr.compatible_brands.markup">isomiso2avc1mp41</property>
  <property name="meta.attr.encoder.markup">Lavf58.45.100</property>
  <property name="meta.media.sample_aspect_num">1</property>
  <property name="meta.media.sample_aspect_den">1</property>
  <property name="meta.media.frame_rate_num">60</property>
  <property name="meta.media.frame_rate_den">1</property>
  <property name="meta.media.colorspace">709</property>
  <property name="meta.media.color_trc">2</property>
  <property name="meta.media.width">1920</property>
  <property name="meta.media.height">1080</property>
  <property name="meta.media.color_range">mpeg</property>
  <property name="set.test_audio">1</property>
  <property name="set.test_image">0</property>
  <property name="meta.media.top_field_first">0</property>
  <property name="meta.media.progressive">1</property>
 </producer>
 <producer id="producer25" in="00:00:00.000" out="00:00:56.550">
  <property name="length">3394</property>
  <property name="eof">pause</property>
  <property name="resource">1.300000:materials/gource_juseless.mp4</property>
  <property name="aspect_ratio">1</property>
  <property name="meta.media.nb_streams">1</property>
  <property name="meta.media.0.stream.type">video</property>
  <property name="meta.media.0.stream.frame_rate">60</property>
  <property name="meta.media.0.stream.sample_aspect_ratio">0</property>
  <property name="meta.media.0.codec.width">1920</property>
  <property name="meta.media.0.codec.height">1080</property>
  <property name="meta.media.0.codec.rotate">0</property>
  <property name="meta.media.0.codec.frame_rate">60</property>
  <property name="meta.media.0.codec.pix_fmt">yuv420p</property>
  <property name="meta.media.0.codec.sample_aspect_ratio">0</property>
  <property name="meta.media.0.codec.colorspace">709</property>
  <property name="meta.media.0.codec.name">h264</property>
  <property name="meta.media.0.codec.long_name">H.264 / AVC / MPEG-4 AVC / MPEG-4 part 10</property>
  <property name="meta.media.0.codec.bit_rate">22770246</property>
  <property name="meta.attr.0.stream.handler_name.markup">VideoHandler</property>
  <property name="meta.attr.major_brand.markup">isom</property>
  <property name="meta.attr.minor_version.markup">512</property>
  <property name="meta.attr.compatible_brands.markup">isomiso2avc1mp41</property>
  <property name="meta.attr.encoder.markup">Lavf58.45.100</property>
  <property name="seekable">1</property>
  <property name="meta.media.sample_aspect_num">1</property>
  <property name="meta.media.sample_aspect_den">1</property>
  <property name="audio_index">-1</property>
  <property name="video_index">0</property>
  <property name="mute_on_pause">1</property>
  <property name="warp_speed">1.3</property>
  <property name="warp_resource">materials/gource_juseless.mp4</property>
  <property name="mlt_service">timewarp</property>
  <property name="set.test_audio">1</property>
  <property name="set.test_image">0</property>
  <property name="kdenlive:id">4</property>
  <property name="warp_pitch">0</property>
  <property name="meta.media.frame_rate_num">60</property>
  <property name="meta.media.frame_rate_den">1</property>
  <property name="meta.media.colorspace">709</property>
  <property name="meta.media.color_trc">2</property>
  <property name="meta.media.width">1920</property>
  <property name="meta.media.height">1080</property>
  <property name="meta.media.color_range">mpeg</property>
  <property name="meta.media.top_field_first">0</property>
  <property name="meta.media.progressive">1</property>
 </producer>
 <producer id="producer26" in="00:00:00.000" out="00:01:00.900">
  <property name="length">3655</property>
  <property name="eof">pause</property>
  <property name="resource">src/whatisdatalad/materials/credits.mp4</property>
  <property name="audio_index">-1</property>
  <property name="video_index">0</property>
  <property name="mute_on_pause">0</property>
  <property name="mlt_service">avformat-novalidate</property>
  <property name="seekable">1</property>
  <property name="aspect_ratio">1</property>
  <property name="kdenlive:clipname"/>
  <property name="kdenlive:folderid">2</property>
  <property name="kdenlive:id">6</property>
  <property name="kdenlive:file_size">774260</property>
  <property name="kdenlive:file_hash">7e7fb7ca9f87c060201e47c18fdd0184</property>
  <property name="global_feed">1</property>
  <property name="xml">was here</property>
  <property name="meta.media.nb_streams">1</property>
  <property name="meta.media.0.stream.type">video</property>
  <property name="meta.media.0.stream.frame_rate">25.0164</property>
  <property name="meta.media.0.stream.sample_aspect_ratio">1</property>
  <property name="meta.media.0.codec.width">1920</property>
  <property name="meta.media.0.codec.height">1080</property>
  <property name="meta.media.0.codec.rotate">0</property>
  <property name="meta.media.0.codec.frame_rate">25</property>
  <property name="meta.media.0.codec.pix_fmt">yuv420p</property>
  <property name="meta.media.0.codec.sample_aspect_ratio">1</property>
  <property name="meta.media.0.codec.colorspace">709</property>
  <property name="meta.media.0.codec.color_trc">1</property>
  <property name="meta.media.0.codec.name">h264</property>
  <property name="meta.media.0.codec.long_name">H.264 / AVC / MPEG-4 AVC / MPEG-4 part 10</property>
  <property name="meta.media.0.codec.bit_rate">99190</property>
  <property name="meta.attr.0.stream.handler_name.markup">VideoHandler</property>
  <property name="meta.attr.major_brand.markup">isom</property>
  <property name="meta.attr.minor_version.markup">512</property>
  <property name="meta.attr.compatible_brands.markup">isomiso2avc1mp41</property>
  <property name="meta.attr.encoder.markup">Lavf58.29.100</property>
  <property name="meta.media.sample_aspect_num">1</property>
  <property name="meta.media.sample_aspect_den">1</property>
  <property name="meta.media.frame_rate_num">38100</property>
  <property name="meta.media.frame_rate_den">1523</property>
  <property name="meta.media.colorspace">709</property>
  <property name="meta.media.color_trc">1</property>
  <property name="meta.media.width">1920</property>
  <property name="meta.media.height">1080</property>
  <property name="meta.media.color_range">mpeg</property>
  <property name="meta.media.top_field_first">0</property>
  <property name="meta.media.progressive">1</property>
  <property name="set.test_audio">1</property>
  <property name="set.test_image">0</property>
 </producer>
 <playlist id="playlist2">
  <entry producer="producer7" in="00:00:00.000" out="00:00:03.967">
   <property name="kdenlive:id">9</property>
   <property name="kdenlive:activeeffect">0</property>
   <filter id="filter1" in="00:00:02.983" out="00:00:03.983">
    <property name="start">1</property>
    <property name="mlt_service">brightness</property>
    <property name="kdenlive_id">fade_to_black</property>
    <property name="end">0</property>
    <property name="alpha">-1</property>
    <property name="kdenlive:collapsed">0</property>
   </filter>
  </entry>
  <blank length="00:00:04.750"/>
  <entry producer="producer9" in="00:00:00.000" out="00:00:03.983">
   <property name="kdenlive:id">11</property>
   <filter id="filter8" out="00:00:02.000">
    <property name="start">0</property>
    <property name="mlt_service">brightness</property>
    <property name="kdenlive_id">fade_from_black</property>
    <property name="end">1</property>
    <property name="alpha">-1</property>
    <property name="kdenlive:collapsed">0</property>
   </filter>
   <filter id="filter9" in="00:00:02.983" out="00:00:03.983">
    <property name="start">1</property>
    <property name="mlt_service">brightness</property>
    <property name="kdenlive_id">fade_to_black</property>
    <property name="end">0</property>
    <property name="alpha">-1</property>
    <property name="kdenlive:collapsed">0</property>
   </filter>
  </entry>
  <blank length="00:00:01.750"/>
  <entry producer="producer24" in="00:00:00.000" out="00:00:00.000">
   <property name="kdenlive:id">4</property>
  </entry>
  <blank length="00:00:15.817"/>
  <entry producer="producer25" in="00:00:02.000" out="00:00:18.183">
   <property name="kdenlive:id">4</property>
   <filter id="filter10">
    <property name="rotate_center">1</property>
    <property name="mlt_service">qtblend</property>
    <property name="kdenlive_id">qtblend</property>
    <property name="rect">00:00:02.000=-250 0 1920 1080 1.000000</property>
    <property name="rotation">00:00:02.000=0</property>
    <property name="compositing">0</property>
    <property name="distort">0</property>
    <property name="kdenlive:collapsed">0</property>
   </filter>
  </entry>
  <blank length="00:00:55.983"/>
  <entry producer="producer26" in="00:00:38.033" out="00:00:43.833">
   <property name="kdenlive:id">6</property>
   <filter id="filter11" in="00:00:38.033" out="00:00:39.200">
    <property name="start">0</property>
    <property name="mlt_service">brightness</property>
    <property name="kdenlive_id">fade_from_black</property>
    <property name="end">1</property>
    <property name="alpha">-1</property>
    <property name="kdenlive:collapsed">0</property>
   </filter>
  </entry>
  <entry producer="producer5" in="00:00:00.000" out="00:00:03.550">
   <property name="kdenlive:id">26</property>
  </entry>
 </playlist>
 <playlist id="playlist3"/>
 <tractor id="tractor1" in="00:00:00.000" out="00:01:51.867">
  <property name="kdenlive:trackheight">73</property>
  <property name="kdenlive:timeline_active">1</property>
  <property name="kdenlive:collapsed">0</property>
  <property name="kdenlive:thumbs_format"/>
  <property name="kdenlive:audio_rec"/>
  <track hide="audio" producer="playlist2"/>
  <track producer="playlist3"/>
 </tractor>
 <producer id="producer27" in="00:00:00.000" out="00:06:07.650">
  <property name="length">22060</property>
  <property name="eof">pause</property>
  <property name="resource">0.200000:materials/gource_juseless.mp4</property>
  <property name="aspect_ratio">1</property>
  <property name="meta.media.nb_streams">1</property>
  <property name="meta.media.0.stream.type">video</property>
  <property name="meta.media.0.stream.frame_rate">60</property>
  <property name="meta.media.0.stream.sample_aspect_ratio">0</property>
  <property name="meta.media.0.codec.width">1920</property>
  <property name="meta.media.0.codec.height">1080</property>
  <property name="meta.media.0.codec.rotate">0</property>
  <property name="meta.media.0.codec.frame_rate">60</property>
  <property name="meta.media.0.codec.pix_fmt">yuv420p</property>
  <property name="meta.media.0.codec.sample_aspect_ratio">0</property>
  <property name="meta.media.0.codec.colorspace">709</property>
  <property name="meta.media.0.codec.name">h264</property>
  <property name="meta.media.0.codec.long_name">H.264 / AVC / MPEG-4 AVC / MPEG-4 part 10</property>
  <property name="meta.media.0.codec.bit_rate">22770246</property>
  <property name="meta.attr.0.stream.handler_name.markup">VideoHandler</property>
  <property name="meta.attr.major_brand.markup">isom</property>
  <property name="meta.attr.minor_version.markup">512</property>
  <property name="meta.attr.compatible_brands.markup">isomiso2avc1mp41</property>
  <property name="meta.attr.encoder.markup">Lavf58.45.100</property>
  <property name="seekable">1</property>
  <property name="meta.media.sample_aspect_num">1</property>
  <property name="meta.media.sample_aspect_den">1</property>
  <property name="audio_index">-1</property>
  <property name="video_index">0</property>
  <property name="mute_on_pause">1</property>
  <property name="warp_speed">0.2</property>
  <property name="warp_resource">materials/gource_juseless.mp4</property>
  <property name="mlt_service">timewarp</property>
  <property name="set.test_audio">1</property>
  <property name="set.test_image">0</property>
  <property name="kdenlive:id">4</property>
  <property name="warp_pitch">0</property>
  <property name="meta.media.frame_rate_num">60</property>
  <property name="meta.media.frame_rate_den">1</property>
  <property name="meta.media.colorspace">709</property>
  <property name="meta.media.color_trc">2</property>
  <property name="meta.media.width">1920</property>
  <property name="meta.media.height">1080</property>
  <property name="meta.media.color_range">mpeg</property>
  <property name="meta.media.top_field_first">0</property>
  <property name="meta.media.progressive">1</property>
 </producer>
 <producer id="producer28" in="00:00:00.000" out="00:01:03.367">
  <property name="length">3803</property>
  <property name="eof">pause</property>
  <property name="resource">1.160000:materials/gource_juseless.mp4</property>
  <property name="aspect_ratio">1</property>
  <property name="meta.media.nb_streams">1</property>
  <property name="meta.media.0.stream.type">video</property>
  <property name="meta.media.0.stream.frame_rate">60</property>
  <property name="meta.media.0.stream.sample_aspect_ratio">0</property>
  <property name="meta.media.0.codec.width">1920</property>
  <property name="meta.media.0.codec.height">1080</property>
  <property name="meta.media.0.codec.rotate">0</property>
  <property name="meta.media.0.codec.frame_rate">60</property>
  <property name="meta.media.0.codec.pix_fmt">yuv420p</property>
  <property name="meta.media.0.codec.sample_aspect_ratio">0</property>
  <property name="meta.media.0.codec.colorspace">709</property>
  <property name="meta.media.0.codec.name">h264</property>
  <property name="meta.media.0.codec.long_name">H.264 / AVC / MPEG-4 AVC / MPEG-4 part 10</property>
  <property name="meta.media.0.codec.bit_rate">22770246</property>
  <property name="meta.attr.0.stream.handler_name.markup">VideoHandler</property>
  <property name="meta.attr.major_brand.markup">isom</property>
  <property name="meta.attr.minor_version.markup">512</property>
  <property name="meta.attr.compatible_brands.markup">isomiso2avc1mp41</property>
  <property name="meta.attr.encoder.markup">Lavf58.45.100</property>
  <property name="seekable">1</property>
  <property name="meta.media.sample_aspect_num">1</property>
  <property name="meta.media.sample_aspect_den">1</property>
  <property name="audio_index">-1</property>
  <property name="video_index">0</property>
  <property name="mute_on_pause">1</property>
  <property name="warp_speed">1.16</property>
  <property name="warp_resource">materials/gource_juseless.mp4</property>
  <property name="mlt_service">timewarp</property>
  <property name="set.test_audio">1</property>
  <property name="set.test_image">0</property>
  <property name="kdenlive:id">4</property>
  <property name="warp_pitch">0</property>
  <property name="meta.media.frame_rate_num">60</property>
  <property name="meta.media.frame_rate_den">1</property>
  <property name="meta.media.colorspace">709</property>
  <property name="meta.media.color_trc">2</property>
  <property name="meta.media.width">1920</property>
  <property name="meta.media.height">1080</property>
  <property name="meta.media.color_range">mpeg</property>
  <property name="meta.media.top_field_first">0</property>
  <property name="meta.media.progressive">1</property>
 </producer>
 <producer id="producer29" in="00:00:00.000" out="00:00:27.767">
  <property name="length">1667</property>
  <property name="eof">pause</property>
  <property name="resource">materials/gource_jureca.mp4</property>
  <property name="audio_index">-1</property>
  <property name="video_index">0</property>
  <property name="mute_on_pause">0</property>
  <property name="mlt_service">avformat-novalidate</property>
  <property name="seekable">1</property>
  <property name="aspect_ratio">1</property>
  <property name="kdenlive:clipname"/>
  <property name="kdenlive:folderid">2</property>
  <property name="kdenlive:id">3</property>
  <property name="kdenlive:file_size">34155467</property>
  <property name="kdenlive:file_hash">d14f623fb59633363de6e385da4cc8b2</property>
  <property name="global_feed">1</property>
  <property name="xml">was here</property>
  <property name="meta.media.nb_streams">1</property>
  <property name="meta.media.0.stream.type">video</property>
  <property name="meta.media.0.stream.frame_rate">60</property>
  <property name="meta.media.0.stream.sample_aspect_ratio">0</property>
  <property name="meta.media.0.codec.width">1920</property>
  <property name="meta.media.0.codec.height">1080</property>
  <property name="meta.media.0.codec.rotate">0</property>
  <property name="meta.media.0.codec.frame_rate">60</property>
  <property name="meta.media.0.codec.pix_fmt">yuv420p</property>
  <property name="meta.media.0.codec.sample_aspect_ratio">0</property>
  <property name="meta.media.0.codec.colorspace">709</property>
  <property name="meta.media.0.codec.name">h264</property>
  <property name="meta.media.0.codec.long_name">H.264 / AVC / MPEG-4 AVC / MPEG-4 part 10</property>
  <property name="meta.media.0.codec.bit_rate">9832538</property>
  <property name="meta.attr.0.stream.handler_name.markup">VideoHandler</property>
  <property name="meta.attr.major_brand.markup">isom</property>
  <property name="meta.attr.minor_version.markup">512</property>
  <property name="meta.attr.compatible_brands.markup">isomiso2avc1mp41</property>
  <property name="meta.attr.encoder.markup">Lavf58.45.100</property>
  <property name="meta.media.sample_aspect_num">1</property>
  <property name="meta.media.sample_aspect_den">1</property>
  <property name="meta.media.frame_rate_num">60</property>
  <property name="meta.media.frame_rate_den">1</property>
  <property name="meta.media.colorspace">709</property>
  <property name="meta.media.color_trc">2</property>
  <property name="meta.media.width">1920</property>
  <property name="meta.media.height">1080</property>
  <property name="meta.media.color_range">mpeg</property>
  <property name="meta.media.top_field_first">0</property>
  <property name="meta.media.progressive">1</property>
  <property name="set.test_audio">1</property>
  <property name="set.test_image">0</property>
 </producer>
 <playlist id="playlist4">
  <blank length="00:00:04.583"/>
  <entry producer="producer8" in="00:00:00.000" out="00:00:03.700">
   <property name="kdenlive:id">10</property>
   <filter id="filter12" out="00:00:02.000">
    <property name="start">0</property>
    <property name="mlt_service">brightness</property>
    <property name="kdenlive_id">fade_from_black</property>
    <property name="end">1</property>
    <property name="alpha">-1</property>
    <property name="kdenlive:collapsed">0</property>
   </filter>
   <filter id="filter13" in="00:00:02.700" out="00:00:03.700">
    <property name="start">1</property>
    <property name="mlt_service">brightness</property>
    <property name="kdenlive_id">fade_to_black</property>
    <property name="end">0</property>
    <property name="alpha">-1</property>
    <property name="kdenlive:collapsed">0</property>
   </filter>
  </entry>
  <blank length="00:00:05.017"/>
  <entry producer="producer10" in="00:00:00.000" out="00:00:03.983">
   <property name="kdenlive:id">12</property>
   <filter id="filter14" out="00:00:02.000">
    <property name="start">0</property>
    <property name="mlt_service">brightness</property>
    <property name="kdenlive_id">fade_from_black</property>
    <property name="end">1</property>
    <property name="alpha">-1</property>
    <property name="kdenlive:collapsed">0</property>
   </filter>
   <filter id="filter15" in="00:00:02.983" out="00:00:03.983">
    <property name="start">1</property>
    <property name="mlt_service">brightness</property>
    <property name="kdenlive_id">fade_to_black</property>
    <property name="end">0</property>
    <property name="alpha">-1</property>
    <property name="kdenlive:collapsed">0</property>
   </filter>
  </entry>
  <entry producer="producer27" in="00:00:00.000" out="00:00:12.983">
   <property name="kdenlive:id">4</property>
   <filter id="filter16">
    <property name="rotate_center">1</property>
    <property name="mlt_service">qtblend</property>
    <property name="kdenlive_id">qtblend</property>
    <property name="rect">00:00:00.000=-250 0 1920 1080 1.000000</property>
    <property name="rotation">00:00:00.000=0</property>
    <property name="compositing">0</property>
    <property name="distort">0</property>
    <property name="kdenlive:collapsed">0</property>
   </filter>
  </entry>
  <blank length="00:00:00.833"/>
  <entry producer="producer13" in="00:00:00.000" out="00:00:06.983">
   <property name="kdenlive:id">15</property>
   <filter id="filter17" out="00:00:02.000">
    <property name="start">0</property>
    <property name="mlt_service">brightness</property>
    <property name="kdenlive_id">fade_from_black</property>
    <property name="end">1</property>
    <property name="alpha">-1</property>
    <property name="kdenlive:collapsed">0</property>
   </filter>
   <filter id="filter18" in="00:00:05.983" out="00:00:06.983">
    <property name="start">1</property>
    <property name="mlt_service">brightness</property>
    <property name="kdenlive_id">fade_to_black</property>
    <property name="end">0</property>
    <property name="alpha">-1</property>
    <property name="kdenlive:collapsed">0</property>
   </filter>
  </entry>
  <blank length="00:00:00.667"/>
  <entry producer="producer14" in="00:00:00.000" out="00:00:06.983">
   <property name="kdenlive:id">16</property>
   <filter id="filter19" out="00:00:02.000">
    <property name="start">0</property>
    <property name="mlt_service">brightness</property>
    <property name="kdenlive_id">fade_from_black</property>
    <property name="end">1</property>
    <property name="alpha">-1</property>
    <property name="kdenlive:collapsed">0</property>
   </filter>
   <filter id="filter20" in="00:00:05.983" out="00:00:06.983">
    <property name="start">1</property>
    <property name="mlt_service">brightness</property>
    <property name="kdenlive_id">fade_to_black</property>
    <property name="end">0</property>
    <property name="alpha">-1</property>
    <property name="kdenlive:collapsed">0</property>
   </filter>
  </entry>
  <blank length="00:00:00.700"/>
  <entry producer="producer28" in="00:00:20.417" out="00:00:51.533">
   <property name="kdenlive:id">4</property>
   <filter id="filter21">
    <property name="rotate_center">1</property>
    <property name="mlt_service">qtblend</property>
    <property name="kdenlive_id">qtblend</property>
    <property name="rect">00:00:20.417=-250 0 1920 1080 1.000000</property>
    <property name="rotation">00:00:20.417=0</property>
    <property name="compositing">0</property>
    <property name="distort">0</property>
    <property name="kdenlive:collapsed">0</property>
   </filter>
  </entry>
  <blank length="00:00:06.550"/>
  <entry producer="producer29" in="00:00:11.417" out="00:00:22.050">
   <property name="kdenlive:id">3</property>
  </entry>
  <blank length="00:00:13.467"/>
  <entry producer="producer4" in="00:00:00.000" out="00:00:03.550">
   <property name="kdenlive:id">7</property>
  </entry>
 </playlist>
 <playlist id="playlist5"/>
 <tractor id="tractor2" in="00:00:00.000" out="00:01:51.867">
  <property name="kdenlive:trackheight">73</property>
  <property name="kdenlive:timeline_active">1</property>
  <property name="kdenlive:collapsed">0</property>
  <property name="kdenlive:thumbs_format"/>
  <property name="kdenlive:audio_rec"/>
  <track hide="audio" producer="playlist4"/>
  <track producer="playlist5"/>
 </tractor>
 <playlist id="playlist6">
  <blank length="00:00:18.650"/>
  <entry producer="producer11" in="00:00:00.000" out="00:00:04.983">
   <property name="kdenlive:id">13</property>
   <filter id="filter22" out="00:00:02.000">
    <property name="start">0</property>
    <property name="mlt_service">brightness</property>
    <property name="kdenlive_id">fade_from_black</property>
    <property name="end">1</property>
    <property name="alpha">-1</property>
    <property name="kdenlive:collapsed">0</property>
   </filter>
   <filter id="filter23" in="00:00:03.983" out="00:00:04.983">
    <property name="start">1</property>
    <property name="mlt_service">brightness</property>
    <property name="kdenlive_id">fade_to_black</property>
    <property name="end">0</property>
    <property name="alpha">-1</property>
    <property name="kdenlive:collapsed">0</property>
   </filter>
  </entry>
  <blank length="00:00:01.667"/>
  <entry producer="producer12" in="00:00:00.000" out="00:00:04.983">
   <property name="kdenlive:id">14</property>
   <filter id="filter24" out="00:00:02.000">
    <property name="start">0</property>
    <property name="mlt_service">brightness</property>
    <property name="kdenlive_id">fade_from_black</property>
    <property name="end">1</property>
    <property name="alpha">-1</property>
    <property name="kdenlive:collapsed">0</property>
   </filter>
   <filter id="filter25" in="00:00:03.983" out="00:00:04.983">
    <property name="start">1</property>
    <property name="mlt_service">brightness</property>
    <property name="kdenlive_id">fade_to_black</property>
    <property name="end">0</property>
    <property name="alpha">-1</property>
    <property name="kdenlive:collapsed">0</property>
   </filter>
  </entry>
  <blank length="00:00:17.950"/>
  <entry producer="producer15" in="00:00:00.000" out="00:00:06.983">
   <property name="kdenlive:id">17</property>
   <filter id="filter26" out="00:00:02.000">
    <property name="start">0</property>
    <property name="mlt_service">brightness</property>
    <property name="kdenlive_id">fade_from_black</property>
    <property name="end">1</property>
    <property name="alpha">-1</property>
    <property name="kdenlive:collapsed">0</property>
   </filter>
   <filter id="filter27" in="00:00:05.983" out="00:00:06.983">
    <property name="start">1</property>
    <property name="mlt_service">brightness</property>
    <property name="kdenlive_id">fade_to_black</property>
    <property name="end">0</property>
    <property name="alpha">-1</property>
    <property name="kdenlive:collapsed">0</property>
   </filter>
  </entry>
  <blank length="00:00:02.050"/>
  <entry producer="producer16" in="00:00:00.000" out="00:00:06.983">
   <property name="kdenlive:id">18</property>
   <filter id="filter28" out="00:00:02.000">
    <property name="start">0</property>
    <property name="mlt_service">brightness</property>
    <property name="kdenlive_id">fade_from_black</property>
    <property name="end">1</property>
    <property name="alpha">-1</property>
    <property name="kdenlive:collapsed">0</property>
   </filter>
   <filter id="filter29" in="00:00:05.983" out="00:00:06.983">
    <property name="start">1</property>
    <property name="mlt_service">brightness</property>
    <property name="kdenlive_id">fade_to_black</property>
    <property name="end">0</property>
    <property name="alpha">-1</property>
    <property name="kdenlive:collapsed">0</property>
   </filter>
  </entry>
  <blank length="00:00:05.300"/>
  <entry producer="producer17" in="00:00:00.000" out="00:00:06.983">
   <property name="kdenlive:id">19</property>
   <filter id="filter30" out="00:00:02.000">
    <property name="start">0</property>
    <property name="mlt_service">brightness</property>
    <property name="kdenlive_id">fade_from_black</property>
    <property name="end">1</property>
    <property name="alpha">-1</property>
    <property name="kdenlive:collapsed">0</property>
   </filter>
   <filter id="filter31" in="00:00:05.983" out="00:00:06.983">
    <property name="start">1</property>
    <property name="mlt_service">brightness</property>
    <property name="kdenlive_id">fade_to_black</property>
    <property name="end">0</property>
    <property name="alpha">-1</property>
    <property name="kdenlive:collapsed">0</property>
   </filter>
  </entry>
  <blank length="00:00:02.583"/>
  <entry producer="producer19" in="00:00:00.000" out="00:00:04.983">
   <property name="kdenlive:id">21</property>
   <filter id="filter32" out="00:00:02.000">
    <property name="start">0</property>
    <property name="mlt_service">brightness</property>
    <property name="kdenlive_id">fade_from_black</property>
    <property name="end">1</property>
    <property name="alpha">-1</property>
    <property name="kdenlive:collapsed">0</property>
   </filter>
   <filter id="filter33" in="00:00:03.983" out="00:00:04.983">
    <property name="start">1</property>
    <property name="mlt_service">brightness</property>
    <property name="kdenlive_id">fade_to_black</property>
    <property name="end">0</property>
    <property name="alpha">-1</property>
    <property name="kdenlive:collapsed">0</property>
   </filter>
  </entry>
  <blank length="00:00:10.333"/>
  <entry producer="producer21" in="00:00:00.000" out="00:00:06.983">
   <property name="kdenlive:id">23</property>
   <filter id="filter34" out="00:00:02.000">
    <property name="start">0</property>
    <property name="mlt_service">brightness</property>
    <property name="kdenlive_id">fade_from_black</property>
    <property name="end">1</property>
    <property name="alpha">-1</property>
    <property name="kdenlive:collapsed">0</property>
   </filter>
   <filter id="filter35" in="00:00:03.967" out="00:00:06.983">
    <property name="start">1</property>
    <property name="mlt_service">brightness</property>
    <property name="kdenlive_id">fade_to_black</property>
    <property name="end">0</property>
    <property name="alpha">-1</property>
    <property name="kdenlive:collapsed">0</property>
   </filter>
  </entry>
  <blank length="00:00:00.967"/>
  <entry producer="producer22" in="00:00:00.000" out="00:00:05.800">
   <property name="kdenlive:id">24</property>
   <filter id="filter36" out="00:00:01.167">
    <property name="start">0</property>
    <property name="mlt_service">brightness</property>
    <property name="kdenlive_id">fade_from_black</property>
    <property name="end">1</property>
    <property name="alpha">-1</property>
    <property name="kdenlive:collapsed">0</property>
   </filter>
  </entry>
 </playlist>
 <playlist id="playlist7"/>
 <tractor id="tractor3" in="00:00:00.000" out="00:01:48.300">
  <property name="kdenlive:trackheight">73</property>
  <property name="kdenlive:timeline_active">1</property>
  <property name="kdenlive:collapsed">0</property>
  <property name="kdenlive:thumbs_format"/>
  <property name="kdenlive:audio_rec"/>
  <track hide="audio" producer="playlist6"/>
  <track producer="playlist7"/>
 </tractor>
 <tractor id="tractor4" global_feed="1" in="00:00:00.000" out="00:01:53.000">
  <track producer="black_track"/>
  <track producer="tractor0"/>
  <track producer="tractor1"/>
  <track producer="tractor2"/>
  <track producer="tractor3"/>
  <transition id="transition0">
   <property name="a_track">0</property>
   <property name="b_track">1</property>
   <property name="mlt_service">mix</property>
   <property name="kdenlive_id">mix</property>
   <property name="internal_added">237</property>
   <property name="always_active">1</property>
   <property name="accepts_blanks">1</property>
   <property name="sum">1</property>
  </transition>
  <transition id="transition1">
   <property name="a_track">0</property>
   <property name="b_track">2</property>
   <property name="compositing">0</property>
   <property name="distort">0</property>
   <property name="rotate_center">0</property>
   <property name="mlt_service">qtblend</property>
   <property name="kdenlive_id">qtblend</property>
   <property name="internal_added">237</property>
   <property name="always_active">1</property>
  </transition>
  <transition id="transition2">
   <property name="a_track">0</property>
   <property name="b_track">3</property>
   <property name="compositing">0</property>
   <property name="distort">0</property>
   <property name="rotate_center">0</property>
   <property name="mlt_service">qtblend</property>
   <property name="kdenlive_id">qtblend</property>
   <property name="internal_added">237</property>
   <property name="always_active">1</property>
  </transition>
  <transition id="transition3">
   <property name="a_track">0</property>
   <property name="b_track">4</property>
   <property name="compositing">0</property>
   <property name="distort">0</property>
   <property name="rotate_center">0</property>
   <property name="mlt_service">qtblend</property>
   <property name="kdenlive_id">qtblend</property>
   <property name="internal_added">237</property>
   <property name="always_active">1</property>
  </transition>
  <filter id="filter37">
   <property name="window">75</property>
   <property name="max_gain">20dB</property>
   <property name="mlt_service">volume</property>
   <property name="internal_added">237</property>
   <property name="disable">1</property>
  </filter>
  <filter id="filter38">
   <property name="channel">-1</property>
   <property name="mlt_service">panner</property>
   <property name="internal_added">237</property>
   <property name="start">0.5</property>
   <property name="disable">1</property>
  </filter>
  <filter id="filter2">
   <property name="iec_scale">0</property>
   <property name="mlt_service">audiolevel</property>
   <property name="disable">1</property>
  </filter>
 </tractor>
</mlt>
